<?xml version="1.0" encoding="utf-8"?>
<!-- Generator: Adobe Illustrator 22.1.0, SVG Export Plug-In . SVG Version: 6.00 Build 0)  -->
<svg version="1.1" xmlns="http://www.w3.org/2000/svg" xmlns:xlink="http://www.w3.org/1999/xlink" x="0px" y="0px"
	 viewBox="0 0 280.43 100" style="enable-background:new 0 0 280.43 100;" xml:space="preserve">
<style type="text/css">
	.st0{fill:#F5F3F0;}
	.st1{fill:#074D80;}
	.st2{fill:#F59120;}
	.st3{fill:#231F20;}
	.st4{fill:#FFFFFF;}
</style>
<g id="bg">
</g>
<g id="grap">
	<g>
		<g>
			<g>
				<g>
					<path class="st1" d="M47.33,45.57c0,1.29,0,2.43,0.21,3.18c-2.21,0.64-5.07,1.5-7.78,1.5c-7.96,0-13.28-4.75-13.28-11.89
						c0-8.14,6.5-12.38,13.49-12.38c3.07,0,5.57,0.64,6.85,0.93c0.07,1.21,0.29,3.07,0.57,5.78l-1.14,0.14
						c-0.93-4.5-3.93-5.43-6.85-5.43c-4.92,0-8.28,3.75-8.28,10.24c0,5.5,2.36,11.17,8.85,11.17c1.14,0,1.82-0.14,2.39-0.39
						c0.68-0.29,0.96-0.89,0.96-2.32v-3c0-2.43-0.14-2.64-3.93-2.93v-1.07h9.92v1.07c-1.86,0.29-2,0.43-2,2.93V45.57z"/>
					<path class="st1" d="M57.86,45.78c0,2.61,0.21,2.78,2.43,2.93v1h-8.49v-1c2.25-0.14,2.46-0.32,2.46-2.93v-8.07
						c0-2.64-0.21-2.78-2.36-2.93v-1h8.92c1.64,0,3,0.21,4.03,0.82c1,0.61,1.78,1.78,1.78,3.35c0,2.11-1.5,3.43-3.46,4.07
						c0.43,0.75,1.57,2.46,2.32,3.53c0.86,1.25,1.53,2,1.96,2.39c0.5,0.43,1.18,0.82,1.78,1.04l-0.11,0.93h-1.43
						c-3.18-0.04-4.14-0.93-5.1-2.21c-0.86-1.14-1.78-2.89-2.39-3.89c-0.43-0.75-0.71-0.89-1.79-0.89h-0.57V45.78z M57.86,41.78H59
						c0.79,0,1.68-0.11,2.32-0.5c1-0.61,1.43-1.68,1.43-2.93c0-2.28-1.57-3.32-3.36-3.32c-1.46,0-1.53,0.04-1.53,1.04V41.78z"/>
					<path class="st1" d="M80.05,48.71l0.68-0.07c1-0.11,1.18-0.36,0.57-1.89l-0.86-2.14h-4.89c-0.14,0.39-0.54,1.53-0.86,2.57
						c-0.32,1.07-0.11,1.36,0.89,1.46l0.82,0.07v1h-6.46v-1c1.5-0.18,2.14-0.25,3.14-2.6l5.32-12.46l1.32-0.29l5.39,13.17
						c0.82,1.96,1.54,2.03,3.03,2.18v1h-8.1V48.71z M75.95,43.25h4l-1.96-5.07h-0.11L75.95,43.25z"/>
					<path class="st1" d="M106.42,49.88h-1.71L94.22,38.03h-0.04v4.78c0,2.57,0.11,3.82,0.21,4.57c0.11,0.86,0.89,1.25,2.68,1.32v1
						h-7.07v-1c1.5-0.04,2.25-0.46,2.39-1.32c0.11-0.75,0.21-2,0.21-4.57v-4.5c0-2.85-0.57-3.39-3-3.53v-1h5.53l9.64,10.6h0.07
						v-3.71c0-2.57-0.11-3.82-0.21-4.6c-0.14-0.86-0.93-1.21-2.71-1.28v-1h7.1v1c-1.5,0.04-2.25,0.43-2.39,1.28
						c-0.11,0.79-0.21,2.03-0.21,4.6V49.88z"/>
					<path class="st1" d="M120.48,45.78c0,2.61,0.21,2.78,2.71,2.93v1h-9.07v-1c2.39-0.14,2.61-0.32,2.61-2.93V35.04h-0.82
						c-2.11,0-2.82,0.32-3.21,0.75c-0.32,0.36-0.64,1-0.96,2.36h-1c0.11-1.96,0.29-3.71,0.32-4.96h0.57
						c0.39,0.54,0.68,0.61,1.54,0.61h11.1c0.86,0,1-0.14,1.39-0.61h0.57c0,1.25,0.18,3.5,0.32,4.89l-1.04,0.07
						c-0.29-1.46-0.57-2.11-0.96-2.5c-0.46-0.46-1.32-0.61-2.68-0.61h-1.39V45.78z"/>
					<path class="st1" d="M146.32,26.51c2.68,0,4.71,0.43,6.14,1.43c1.54,1.07,2.43,2.64,2.43,5.03c0,4.53-3.6,6.85-7.07,7.28
						c-0.57,0.07-1.21,0.07-1.64,0.07l-2.39-0.64v4.68c0,3.85,0.29,4.14,3.57,4.35v1h-10.49v-1c2.71-0.21,3-0.5,3-4.35V31.86
						c0-3.85-0.29-4.14-2.86-4.35v-1H146.32z M143.78,38.28c0.57,0.21,1.25,0.43,2.18,0.43c1.5,0,4.57-1,4.57-5.71
						c0-3.68-2-5.14-5-5.14c-1.71,0-1.75,0.21-1.75,1.28V38.28z"/>
					<path class="st1" d="M163.37,45.78c0,2.61,0.21,2.78,2.43,2.93v1h-8.49v-1c2.25-0.14,2.46-0.32,2.46-2.93v-8.07
						c0-2.64-0.21-2.78-2.36-2.93v-1h8.92c1.64,0,3,0.21,4.03,0.82c1,0.61,1.78,1.78,1.78,3.35c0,2.11-1.5,3.43-3.46,4.07
						c0.43,0.75,1.57,2.46,2.32,3.53c0.86,1.25,1.53,2,1.96,2.39c0.5,0.43,1.18,0.82,1.78,1.04l-0.11,0.93h-1.43
						c-3.18-0.04-4.14-0.93-5.1-2.21c-0.86-1.14-1.78-2.89-2.39-3.89c-0.43-0.75-0.71-0.89-1.79-0.89h-0.57V45.78z M163.37,41.78
						h1.14c0.79,0,1.68-0.11,2.32-0.5c1-0.61,1.43-1.68,1.43-2.93c0-2.28-1.57-3.32-3.35-3.32c-1.46,0-1.53,0.04-1.53,1.04V41.78z"
						/>
					<path class="st1" d="M183.21,45.78c0,2.61,0.21,2.78,2.43,2.93v1h-8.6v-1c2.21-0.14,2.43-0.32,2.43-2.93v-8.07
						c0-2.64-0.21-2.78-2.43-2.93v-1h8.6v1c-2.21,0.14-2.43,0.29-2.43,2.93V45.78z"/>
					<path class="st1" d="M196.02,49.96l-5.6-13.06c-0.75-1.71-1.29-1.96-2.93-2.11v-1h8.21v1l-0.89,0.11
						c-1,0.11-1.03,0.5-0.54,1.64l3.68,8.6c0.75-1.75,2.75-7.25,3.21-8.46c0.46-1.25,0.39-1.68-0.86-1.82l-0.68-0.07v-1h6.57v1
						c-1.82,0.18-2.21,0.64-3.39,2.85c-0.32,0.61-3.39,7.32-5.42,12.31H196.02z"/>
					<path class="st1" d="M213.68,48.71l0.68-0.07c1-0.11,1.18-0.36,0.57-1.89l-0.86-2.14h-4.89c-0.14,0.39-0.54,1.53-0.86,2.57
						c-0.32,1.07-0.11,1.36,0.89,1.46l0.82,0.07v1h-6.46v-1c1.5-0.18,2.14-0.25,3.14-2.6l5.32-12.46l1.32-0.29l5.39,13.17
						c0.82,1.96,1.54,2.03,3.03,2.18v1h-8.1V48.71z M209.58,43.25h4l-1.96-5.07h-0.11L209.58,43.25z"/>
					<path class="st1" d="M230.74,45.78c0,2.61,0.21,2.78,2.71,2.93v1h-9.07v-1c2.39-0.14,2.61-0.32,2.61-2.93V35.04h-0.82
						c-2.11,0-2.82,0.32-3.21,0.75c-0.32,0.36-0.64,1-0.96,2.36h-1c0.11-1.96,0.29-3.71,0.32-4.96h0.57
						c0.39,0.54,0.68,0.61,1.54,0.61h11.1c0.86,0,1-0.14,1.39-0.61h0.57c0,1.25,0.18,3.5,0.32,4.89l-1.04,0.07
						c-0.29-1.46-0.57-2.11-0.96-2.5c-0.46-0.46-1.32-0.61-2.68-0.61h-1.39V45.78z"/>
					<path class="st1" d="M241.74,37.71c0-2.64-0.18-2.82-2.36-2.93v-1h12.99c0.04,0.68,0.14,2.36,0.29,4.18l-1.04,0.07
						c-0.25-1.32-0.54-2-0.93-2.39c-0.32-0.32-1.11-0.61-2.82-0.61h-1.36c-1,0-1.04,0-1.04,0.89v4.78h2.36
						c2.07,0,2.14-0.14,2.43-1.96h1.04v5.32h-1.04c-0.29-1.82-0.36-1.93-2.43-1.93h-2.36v3.53c0,1.39,0.18,2.21,0.68,2.46
						s1.25,0.32,2.5,0.32s2.39-0.14,3-0.75c0.43-0.46,0.86-1.29,1.21-2.43l1.07,0.11c-0.18,0.93-0.71,3.64-0.93,4.32h-13.88v-1
						c2.43-0.14,2.61-0.32,2.61-2.96V37.71z"/>
				</g>
			</g>
			<g>
				<g>
					<path class="st2" d="M88.45,61.78c-0.11,0-0.25,0.03-0.4,0.08c-0.15,0.05-0.29,0.11-0.42,0.19c-0.16,0.1-0.29,0.22-0.39,0.34
						c-0.1,0.13-0.18,0.31-0.26,0.54c-0.32,1.05-0.7,2.28-1.13,3.69c-0.43,1.41-0.89,2.9-1.39,4.49h-0.63l-2.45-7.47l-2.55,7.47
						h-0.6c-0.45-1.59-0.92-3.25-1.4-4.97c-0.48-1.71-0.81-2.87-0.97-3.45c-0.04-0.14-0.1-0.27-0.18-0.38
						c-0.08-0.11-0.19-0.21-0.33-0.3c-0.11-0.08-0.25-0.14-0.4-0.17c-0.15-0.04-0.29-0.06-0.41-0.07v-0.49h3.95v0.49
						c-0.35,0.02-0.64,0.05-0.88,0.1c-0.24,0.05-0.37,0.13-0.37,0.25c0,0.05,0.01,0.11,0.02,0.18c0.01,0.07,0.03,0.13,0.03,0.18
						c0.1,0.4,0.29,1.06,0.56,1.99s0.66,2.31,1.18,4.16l2.42-7.21h0.67l2.44,7.37c0.33-1.13,0.61-2.12,0.85-2.97
						c0.24-0.85,0.43-1.57,0.59-2.17c0.11-0.42,0.18-0.72,0.21-0.87c0.03-0.16,0.04-0.29,0.04-0.4c0-0.16-0.11-0.29-0.32-0.39
						s-0.55-0.18-1.03-0.21v-0.49h3.52V61.78z"/>
					<path class="st2" d="M93.53,69.41c-0.28,0.54-0.66,0.97-1.13,1.29s-1.02,0.48-1.63,0.48c-0.54,0-1.02-0.1-1.42-0.29
						c-0.41-0.19-0.74-0.45-1.01-0.78s-0.46-0.71-0.59-1.15c-0.13-0.44-0.2-0.9-0.2-1.39c0-0.44,0.07-0.87,0.21-1.29
						c0.14-0.42,0.34-0.8,0.61-1.14c0.26-0.32,0.58-0.58,0.97-0.78c0.39-0.2,0.82-0.3,1.3-0.3c0.49,0,0.91,0.08,1.26,0.23
						s0.64,0.37,0.85,0.64c0.21,0.25,0.37,0.56,0.47,0.9c0.1,0.35,0.15,0.72,0.15,1.13v0.45H88.9c0,0.44,0.04,0.84,0.13,1.21
						c0.08,0.36,0.22,0.68,0.4,0.95c0.18,0.26,0.41,0.47,0.7,0.63s0.63,0.23,1.03,0.23c0.41,0,0.76-0.09,1.05-0.29
						c0.29-0.19,0.58-0.53,0.85-1.03L93.53,69.41z M92.01,66.84c0-0.25-0.02-0.53-0.07-0.82c-0.04-0.29-0.11-0.53-0.21-0.73
						c-0.1-0.21-0.25-0.38-0.43-0.51s-0.42-0.2-0.7-0.2c-0.48,0-0.88,0.2-1.19,0.6c-0.32,0.4-0.49,0.95-0.52,1.66H92.01z"/>
					<path class="st2" d="M100.79,70.87c-0.21,0.08-0.4,0.14-0.56,0.19c-0.16,0.05-0.34,0.07-0.55,0.07c-0.36,0-0.64-0.08-0.85-0.25
						c-0.21-0.17-0.35-0.41-0.41-0.73h-0.04c-0.3,0.33-0.61,0.58-0.95,0.75c-0.34,0.17-0.75,0.26-1.23,0.26
						c-0.51,0-0.92-0.16-1.25-0.46c-0.33-0.31-0.49-0.72-0.49-1.22c0-0.26,0.04-0.49,0.11-0.7s0.18-0.39,0.33-0.55
						c0.11-0.14,0.26-0.26,0.45-0.37c0.19-0.11,0.36-0.19,0.53-0.26c0.21-0.08,0.62-0.22,1.25-0.43c0.63-0.21,1.05-0.37,1.27-0.49
						v-0.68c0-0.06-0.01-0.17-0.04-0.34c-0.02-0.17-0.08-0.33-0.16-0.48c-0.09-0.17-0.22-0.32-0.39-0.44
						c-0.17-0.13-0.4-0.19-0.71-0.19c-0.21,0-0.4,0.04-0.58,0.11c-0.18,0.07-0.31,0.14-0.38,0.22c0,0.09,0.02,0.23,0.07,0.4
						c0.04,0.18,0.06,0.34,0.06,0.49c0,0.16-0.07,0.31-0.21,0.44c-0.14,0.13-0.34,0.2-0.6,0.2c-0.23,0-0.4-0.08-0.5-0.24
						c-0.11-0.16-0.16-0.34-0.16-0.54c0-0.21,0.07-0.41,0.22-0.6c0.15-0.19,0.34-0.36,0.58-0.51c0.21-0.13,0.45-0.24,0.75-0.33
						c0.29-0.09,0.58-0.13,0.85-0.13c0.38,0,0.72,0.03,1,0.08c0.29,0.05,0.54,0.17,0.78,0.34c0.23,0.17,0.41,0.4,0.53,0.69
						c0.12,0.29,0.18,0.66,0.18,1.12c0,0.65-0.01,1.23-0.02,1.73c-0.01,0.5-0.02,1.05-0.02,1.65c0,0.18,0.03,0.32,0.09,0.42
						c0.06,0.1,0.16,0.19,0.28,0.27c0.07,0.04,0.18,0.06,0.32,0.07c0.15,0,0.3,0.01,0.46,0.01V70.87z M98.4,67.26
						c-0.39,0.11-0.73,0.23-1.02,0.34s-0.56,0.25-0.81,0.41c-0.23,0.16-0.41,0.34-0.54,0.55c-0.13,0.21-0.2,0.46-0.2,0.76
						c0,0.38,0.1,0.66,0.3,0.83c0.2,0.18,0.45,0.27,0.75,0.27c0.32,0,0.61-0.08,0.85-0.24s0.45-0.34,0.62-0.56L98.4,67.26z"/>
					<path class="st2" d="M104.8,70.99h-3.29v-0.45c0.1-0.01,0.22-0.02,0.33-0.03c0.12-0.01,0.22-0.03,0.29-0.05
						c0.13-0.04,0.22-0.11,0.29-0.22s0.1-0.24,0.1-0.4v-7.81c0-0.16-0.04-0.32-0.11-0.46c-0.07-0.14-0.16-0.26-0.28-0.34
						c-0.08-0.05-0.23-0.1-0.45-0.15s-0.39-0.07-0.53-0.08v-0.44l2.54-0.15l0.1,0.1v9.25c0,0.16,0.03,0.29,0.09,0.39
						c0.06,0.1,0.16,0.18,0.29,0.24c0.1,0.05,0.2,0.08,0.3,0.1c0.1,0.02,0.21,0.04,0.33,0.05V70.99z"/>
					<path class="st2" d="M110.02,70.7c-0.3,0.12-0.58,0.23-0.84,0.31c-0.26,0.08-0.59,0.13-0.97,0.13c-0.57,0-0.96-0.14-1.19-0.43
						c-0.23-0.29-0.34-0.69-0.34-1.21v-4.57h-1.22v-0.66h1.24v-2.1h1.24v2.1h1.93v0.66h-1.92v3.77c0,0.28,0.01,0.52,0.03,0.71
						c0.02,0.19,0.07,0.35,0.15,0.5c0.07,0.13,0.18,0.23,0.33,0.3s0.34,0.1,0.59,0.1c0.11,0,0.28-0.01,0.5-0.03
						c0.22-0.02,0.38-0.05,0.47-0.08V70.7z"/>
					<path class="st2" d="M118.12,70.99h-3.32v-0.45c0.1-0.01,0.22-0.02,0.35-0.03s0.23-0.03,0.31-0.05
						c0.13-0.04,0.22-0.11,0.28-0.21c0.06-0.1,0.09-0.24,0.09-0.4v-3.47c0-0.48-0.11-0.85-0.34-1.11c-0.23-0.26-0.5-0.39-0.83-0.39
						c-0.24,0-0.46,0.04-0.66,0.11c-0.2,0.07-0.38,0.17-0.54,0.28c-0.16,0.11-0.27,0.23-0.36,0.34c-0.08,0.11-0.15,0.21-0.19,0.29
						v3.88c0,0.16,0.03,0.28,0.09,0.38c0.06,0.1,0.16,0.18,0.28,0.23c0.1,0.05,0.2,0.08,0.31,0.1c0.11,0.02,0.22,0.04,0.35,0.05
						v0.45h-3.3v-0.45c0.1-0.01,0.21-0.02,0.33-0.03c0.11-0.01,0.21-0.03,0.29-0.05c0.13-0.04,0.22-0.11,0.29-0.22
						s0.09-0.24,0.09-0.4v-7.85c0-0.16-0.04-0.31-0.11-0.47c-0.07-0.15-0.16-0.27-0.28-0.35c-0.08-0.06-0.23-0.1-0.43-0.13
						c-0.21-0.03-0.37-0.04-0.5-0.05v-0.44l2.5-0.15l0.1,0.1v4.7h0.03c0.15-0.15,0.29-0.28,0.41-0.4c0.12-0.12,0.29-0.24,0.49-0.37
						c0.17-0.11,0.38-0.2,0.61-0.27s0.5-0.11,0.79-0.11c0.6,0,1.07,0.19,1.39,0.57c0.32,0.38,0.49,0.93,0.49,1.64v3.51
						c0,0.16,0.03,0.29,0.09,0.39c0.06,0.1,0.15,0.17,0.29,0.23c0.11,0.04,0.2,0.07,0.29,0.09c0.08,0.02,0.2,0.04,0.33,0.04V70.99z"
						/>
					<path class="st2" d="M134.53,70.99h-4.29v-0.49c0.16,0,0.35-0.02,0.6-0.05c0.24-0.03,0.41-0.07,0.5-0.12
						c0.14-0.09,0.25-0.19,0.31-0.3c0.07-0.11,0.1-0.25,0.1-0.42v-7.05h-0.1l-3.31,8.26H128l-3.15-8.44h-0.09v5.79
						c0,0.56,0.04,0.99,0.11,1.28c0.07,0.29,0.18,0.5,0.32,0.63c0.1,0.1,0.31,0.19,0.62,0.27s0.52,0.13,0.62,0.14v0.49h-3.92v-0.49
						c0.21-0.02,0.42-0.05,0.65-0.1c0.22-0.05,0.4-0.12,0.52-0.23c0.16-0.13,0.27-0.32,0.33-0.59s0.09-0.71,0.09-1.33V63.3
						c0-0.29-0.03-0.52-0.1-0.7s-0.17-0.33-0.29-0.44c-0.14-0.12-0.31-0.21-0.52-0.27s-0.41-0.09-0.61-0.1v-0.49h3.31l2.78,7.28
						l2.37-6.09c0.09-0.22,0.16-0.46,0.22-0.7s0.09-0.41,0.1-0.49h3.16v0.49c-0.13,0-0.29,0.03-0.49,0.06
						c-0.2,0.04-0.34,0.07-0.43,0.1c-0.16,0.05-0.26,0.15-0.31,0.27s-0.08,0.27-0.08,0.42v6.99c0,0.16,0.03,0.29,0.08,0.4
						s0.16,0.21,0.31,0.29c0.08,0.05,0.23,0.09,0.44,0.13c0.21,0.04,0.38,0.06,0.5,0.07V70.99z"/>
					<path class="st2" d="M142.08,70.87c-0.21,0.08-0.4,0.14-0.56,0.19c-0.16,0.05-0.34,0.07-0.55,0.07c-0.36,0-0.64-0.08-0.85-0.25
						c-0.21-0.17-0.35-0.41-0.41-0.73h-0.04c-0.3,0.33-0.61,0.58-0.95,0.75c-0.34,0.17-0.75,0.26-1.23,0.26
						c-0.51,0-0.92-0.16-1.25-0.46c-0.33-0.31-0.49-0.72-0.49-1.22c0-0.26,0.04-0.49,0.11-0.7s0.18-0.39,0.33-0.55
						c0.11-0.14,0.26-0.26,0.45-0.37c0.19-0.11,0.36-0.19,0.53-0.26c0.21-0.08,0.62-0.22,1.25-0.43c0.63-0.21,1.05-0.37,1.27-0.49
						v-0.68c0-0.06-0.01-0.17-0.04-0.34c-0.02-0.17-0.08-0.33-0.16-0.48c-0.09-0.17-0.22-0.32-0.39-0.44
						c-0.17-0.13-0.4-0.19-0.71-0.19c-0.21,0-0.4,0.04-0.58,0.11c-0.18,0.07-0.31,0.14-0.38,0.22c0,0.09,0.02,0.23,0.07,0.4
						c0.04,0.18,0.06,0.34,0.06,0.49c0,0.16-0.07,0.31-0.21,0.44c-0.14,0.13-0.34,0.2-0.6,0.2c-0.23,0-0.4-0.08-0.5-0.24
						c-0.11-0.16-0.16-0.34-0.16-0.54c0-0.21,0.07-0.41,0.22-0.6c0.15-0.19,0.34-0.36,0.58-0.51c0.21-0.13,0.45-0.24,0.75-0.33
						c0.29-0.09,0.58-0.13,0.85-0.13c0.38,0,0.72,0.03,1,0.08c0.29,0.05,0.54,0.17,0.78,0.34c0.23,0.17,0.41,0.4,0.53,0.69
						c0.12,0.29,0.18,0.66,0.18,1.12c0,0.65-0.01,1.23-0.02,1.73c-0.01,0.5-0.02,1.05-0.02,1.65c0,0.18,0.03,0.32,0.09,0.42
						c0.06,0.1,0.16,0.19,0.28,0.27c0.07,0.04,0.18,0.06,0.32,0.07c0.15,0,0.3,0.01,0.46,0.01V70.87z M139.7,67.26
						c-0.39,0.11-0.73,0.23-1.02,0.34s-0.56,0.25-0.81,0.41c-0.23,0.16-0.41,0.34-0.54,0.55c-0.13,0.21-0.2,0.46-0.2,0.76
						c0,0.38,0.1,0.66,0.3,0.83c0.2,0.18,0.45,0.27,0.75,0.27c0.32,0,0.61-0.08,0.85-0.24s0.45-0.34,0.62-0.56L139.7,67.26z"/>
					<path class="st2" d="M150.38,70.99h-3.29v-0.45c0.1-0.01,0.22-0.02,0.34-0.03c0.13-0.01,0.23-0.03,0.31-0.05
						c0.13-0.04,0.22-0.11,0.28-0.21c0.06-0.1,0.09-0.24,0.09-0.4v-3.47c0-0.48-0.11-0.85-0.34-1.11c-0.23-0.26-0.5-0.39-0.83-0.39
						c-0.24,0-0.46,0.04-0.66,0.11c-0.2,0.07-0.38,0.17-0.54,0.28c-0.15,0.1-0.27,0.22-0.36,0.34c-0.09,0.12-0.15,0.22-0.2,0.29
						v3.88c0,0.16,0.03,0.28,0.1,0.38s0.16,0.18,0.29,0.23c0.1,0.05,0.2,0.08,0.31,0.1c0.11,0.02,0.23,0.04,0.34,0.05v0.45h-3.3
						v-0.45c0.1-0.01,0.21-0.02,0.32-0.03c0.11-0.01,0.21-0.03,0.29-0.05c0.13-0.04,0.22-0.11,0.28-0.21
						c0.06-0.1,0.09-0.24,0.09-0.4v-4.16c0-0.16-0.03-0.3-0.1-0.43c-0.07-0.13-0.16-0.24-0.28-0.32c-0.09-0.05-0.19-0.09-0.31-0.12
						c-0.12-0.02-0.25-0.04-0.38-0.05v-0.45l2.24-0.15l0.1,0.1v0.95h0.03c0.11-0.11,0.25-0.24,0.41-0.39
						c0.16-0.15,0.32-0.28,0.46-0.37c0.17-0.11,0.37-0.2,0.6-0.27s0.49-0.11,0.79-0.11c0.65,0,1.13,0.2,1.44,0.6
						c0.31,0.4,0.47,0.94,0.47,1.61v3.51c0,0.16,0.03,0.29,0.08,0.39c0.05,0.1,0.15,0.17,0.28,0.23c0.11,0.05,0.2,0.08,0.28,0.1
						c0.08,0.02,0.19,0.03,0.33,0.04V70.99z"/>
					<path class="st2" d="M157.77,70.87c-0.21,0.08-0.4,0.14-0.56,0.19c-0.16,0.05-0.34,0.07-0.55,0.07c-0.36,0-0.64-0.08-0.85-0.25
						c-0.21-0.17-0.35-0.41-0.41-0.73h-0.04c-0.3,0.33-0.61,0.58-0.95,0.75c-0.34,0.17-0.75,0.26-1.23,0.26
						c-0.51,0-0.92-0.16-1.25-0.46c-0.33-0.31-0.49-0.72-0.49-1.22c0-0.26,0.04-0.49,0.11-0.7s0.18-0.39,0.33-0.55
						c0.11-0.14,0.26-0.26,0.45-0.37c0.19-0.11,0.36-0.19,0.53-0.26c0.21-0.08,0.62-0.22,1.25-0.43c0.63-0.21,1.05-0.37,1.27-0.49
						v-0.68c0-0.06-0.01-0.17-0.04-0.34c-0.02-0.17-0.08-0.33-0.16-0.48c-0.09-0.17-0.22-0.32-0.39-0.44
						c-0.17-0.13-0.4-0.19-0.71-0.19c-0.21,0-0.4,0.04-0.58,0.11c-0.18,0.07-0.31,0.14-0.38,0.22c0,0.09,0.02,0.23,0.07,0.4
						c0.04,0.18,0.06,0.34,0.06,0.49c0,0.16-0.07,0.31-0.21,0.44c-0.14,0.13-0.34,0.2-0.6,0.2c-0.23,0-0.4-0.08-0.5-0.24
						c-0.11-0.16-0.16-0.34-0.16-0.54c0-0.21,0.07-0.41,0.22-0.6c0.15-0.19,0.34-0.36,0.58-0.51c0.21-0.13,0.45-0.24,0.75-0.33
						c0.29-0.09,0.58-0.13,0.85-0.13c0.38,0,0.72,0.03,1,0.08c0.29,0.05,0.54,0.17,0.78,0.34c0.23,0.17,0.41,0.4,0.53,0.69
						c0.12,0.29,0.18,0.66,0.18,1.12c0,0.65-0.01,1.23-0.02,1.73c-0.01,0.5-0.02,1.05-0.02,1.65c0,0.18,0.03,0.32,0.09,0.42
						c0.06,0.1,0.16,0.19,0.28,0.27c0.07,0.04,0.18,0.06,0.32,0.07c0.15,0,0.3,0.01,0.46,0.01V70.87z M155.39,67.26
						c-0.39,0.11-0.73,0.23-1.02,0.34s-0.56,0.25-0.81,0.41c-0.23,0.16-0.41,0.34-0.54,0.55c-0.13,0.21-0.2,0.46-0.2,0.76
						c0,0.38,0.1,0.66,0.3,0.83c0.2,0.18,0.45,0.27,0.75,0.27c0.32,0,0.61-0.08,0.85-0.24s0.45-0.34,0.62-0.56L155.39,67.26z"/>
					<path class="st2" d="M164.4,70.3c0.18,0.17,0.33,0.37,0.43,0.59s0.16,0.49,0.16,0.81s-0.07,0.63-0.21,0.91
						c-0.14,0.28-0.36,0.53-0.64,0.74c-0.31,0.21-0.67,0.38-1.09,0.5s-0.95,0.18-1.57,0.18c-1.02,0-1.78-0.15-2.29-0.45
						c-0.51-0.3-0.76-0.74-0.76-1.31c0-0.46,0.18-0.83,0.55-1.1s0.83-0.42,1.39-0.44v-0.1c-0.14-0.04-0.28-0.09-0.42-0.15
						c-0.15-0.06-0.27-0.13-0.38-0.21c-0.12-0.1-0.21-0.21-0.29-0.34c-0.07-0.13-0.11-0.29-0.11-0.48c0-0.24,0.08-0.46,0.26-0.67
						c0.17-0.2,0.43-0.38,0.78-0.52v-0.1c-0.44-0.21-0.78-0.47-1.02-0.79c-0.24-0.32-0.36-0.69-0.36-1.12
						c0-0.64,0.24-1.16,0.71-1.57c0.48-0.41,1.08-0.62,1.83-0.62c0.21,0,0.41,0.02,0.61,0.06c0.2,0.04,0.41,0.09,0.62,0.16h2.35
						v0.66h-1.59v0.04c0.17,0.2,0.29,0.41,0.38,0.65s0.12,0.47,0.12,0.7c0,0.59-0.24,1.09-0.72,1.5c-0.48,0.41-1.04,0.62-1.68,0.62
						h-0.83c-0.1,0.04-0.21,0.1-0.33,0.2s-0.17,0.23-0.17,0.39c0,0.17,0.05,0.3,0.14,0.39c0.1,0.09,0.21,0.15,0.35,0.18
						c0.13,0.04,0.29,0.06,0.46,0.07c0.18,0.01,0.36,0.02,0.54,0.02c0.2,0,0.48,0.02,0.82,0.04c0.35,0.02,0.6,0.04,0.74,0.04
						c0.21,0.01,0.42,0.06,0.63,0.15C164.04,70.01,164.23,70.14,164.4,70.3z M163.87,71.95c0-0.25-0.06-0.46-0.18-0.63
						s-0.3-0.28-0.54-0.33c-0.13-0.02-0.39-0.04-0.79-0.06s-0.86-0.03-1.38-0.03c-0.49,0.1-0.84,0.26-1.05,0.48
						c-0.21,0.23-0.31,0.52-0.31,0.87c0,0.16,0.03,0.31,0.1,0.46s0.19,0.28,0.36,0.4c0.16,0.12,0.37,0.22,0.64,0.29
						c0.27,0.08,0.6,0.11,0.98,0.11c0.67,0,1.2-0.13,1.58-0.39C163.68,72.87,163.87,72.47,163.87,71.95z M162.56,66.3
						c0-0.53-0.11-0.96-0.33-1.27c-0.22-0.32-0.52-0.48-0.91-0.48c-0.21,0-0.4,0.04-0.55,0.13c-0.15,0.09-0.28,0.21-0.37,0.38
						c-0.09,0.15-0.16,0.33-0.19,0.54c-0.04,0.21-0.06,0.43-0.06,0.65c0,0.51,0.11,0.92,0.33,1.24c0.22,0.32,0.51,0.48,0.86,0.48
						c0.39,0,0.69-0.16,0.91-0.47C162.45,67.18,162.56,66.78,162.56,66.3z"/>
					<path class="st2" d="M171.9,69.41c-0.28,0.54-0.66,0.97-1.13,1.29s-1.02,0.48-1.63,0.48c-0.54,0-1.02-0.1-1.42-0.29
						c-0.41-0.19-0.74-0.45-1.01-0.78s-0.46-0.71-0.59-1.15c-0.13-0.44-0.2-0.9-0.2-1.39c0-0.44,0.07-0.87,0.21-1.29
						c0.14-0.42,0.34-0.8,0.61-1.14c0.26-0.32,0.58-0.58,0.97-0.78c0.39-0.2,0.82-0.3,1.3-0.3c0.49,0,0.91,0.08,1.26,0.23
						s0.64,0.37,0.85,0.64c0.21,0.25,0.37,0.56,0.47,0.9c0.1,0.35,0.15,0.72,0.15,1.13v0.45h-4.46c0,0.44,0.04,0.84,0.13,1.21
						c0.08,0.36,0.22,0.68,0.4,0.95c0.18,0.26,0.41,0.47,0.7,0.63s0.63,0.23,1.03,0.23c0.41,0,0.76-0.09,1.05-0.29
						c0.29-0.19,0.58-0.53,0.85-1.03L171.9,69.41z M170.39,66.84c0-0.25-0.02-0.53-0.07-0.82c-0.04-0.29-0.11-0.53-0.21-0.73
						c-0.1-0.21-0.25-0.38-0.43-0.51s-0.42-0.2-0.7-0.2c-0.48,0-0.88,0.2-1.19,0.6c-0.32,0.4-0.49,0.95-0.52,1.66H170.39z"/>
					<path class="st2" d="M184.45,70.99h-3.28v-0.45c0.1-0.01,0.21-0.02,0.32-0.03c0.11-0.01,0.2-0.03,0.28-0.05
						c0.13-0.04,0.22-0.11,0.28-0.21c0.06-0.1,0.09-0.24,0.09-0.4v-3.48c0-0.47-0.11-0.84-0.32-1.1c-0.22-0.26-0.49-0.39-0.81-0.39
						c-0.22,0-0.43,0.03-0.63,0.1s-0.38,0.16-0.54,0.29c-0.13,0.1-0.24,0.21-0.33,0.33c-0.09,0.12-0.16,0.21-0.2,0.29v3.89
						c0,0.16,0.03,0.29,0.08,0.39c0.05,0.1,0.15,0.18,0.28,0.24c0.1,0.04,0.2,0.07,0.28,0.09c0.08,0.02,0.2,0.04,0.33,0.04v0.45
						h-3.21v-0.45c0.1-0.01,0.21-0.02,0.3-0.03c0.1-0.01,0.19-0.03,0.27-0.05c0.13-0.04,0.22-0.11,0.28-0.21
						c0.06-0.1,0.09-0.24,0.09-0.4v-3.48c0-0.47-0.11-0.84-0.33-1.1c-0.22-0.26-0.49-0.39-0.81-0.39c-0.22,0-0.43,0.04-0.63,0.11
						c-0.2,0.07-0.38,0.17-0.54,0.29c-0.13,0.1-0.24,0.21-0.33,0.34c-0.09,0.13-0.16,0.22-0.21,0.28v3.86c0,0.16,0.03,0.29,0.1,0.39
						s0.16,0.18,0.29,0.24c0.1,0.05,0.19,0.08,0.29,0.1s0.21,0.04,0.33,0.05v0.45h-3.27v-0.45c0.1-0.01,0.21-0.02,0.33-0.03
						c0.11-0.01,0.21-0.03,0.29-0.05c0.13-0.04,0.22-0.11,0.28-0.21c0.06-0.1,0.09-0.24,0.09-0.4v-4.19c0-0.15-0.03-0.28-0.1-0.39
						c-0.07-0.12-0.16-0.21-0.28-0.3c-0.09-0.05-0.19-0.1-0.32-0.13c-0.13-0.03-0.26-0.06-0.4-0.06v-0.45l2.26-0.15l0.1,0.1v0.96
						h0.05c0.11-0.11,0.25-0.25,0.42-0.4s0.32-0.28,0.46-0.38c0.16-0.11,0.36-0.2,0.6-0.27c0.24-0.07,0.5-0.11,0.78-0.11
						c0.44,0,0.81,0.12,1.13,0.35c0.31,0.23,0.54,0.52,0.68,0.85c0.16-0.16,0.31-0.3,0.43-0.42c0.12-0.12,0.29-0.25,0.49-0.39
						c0.17-0.12,0.38-0.21,0.61-0.29s0.49-0.11,0.78-0.11c0.57,0,1.02,0.19,1.35,0.56s0.5,0.95,0.5,1.72v3.42
						c0,0.16,0.03,0.29,0.08,0.39c0.05,0.1,0.15,0.18,0.28,0.24c0.1,0.04,0.21,0.07,0.31,0.09c0.1,0.02,0.22,0.04,0.34,0.04V70.99z"
						/>
					<path class="st2" d="M191.38,69.41c-0.28,0.54-0.66,0.97-1.13,1.29s-1.02,0.48-1.63,0.48c-0.54,0-1.02-0.1-1.42-0.29
						c-0.41-0.19-0.74-0.45-1.01-0.78s-0.46-0.71-0.59-1.15c-0.13-0.44-0.2-0.9-0.2-1.39c0-0.44,0.07-0.87,0.21-1.29
						c0.14-0.42,0.34-0.8,0.61-1.14c0.26-0.32,0.58-0.58,0.97-0.78c0.39-0.2,0.82-0.3,1.3-0.3c0.49,0,0.91,0.08,1.26,0.23
						s0.64,0.37,0.85,0.64c0.21,0.25,0.37,0.56,0.47,0.9c0.1,0.35,0.15,0.72,0.15,1.13v0.45h-4.46c0,0.44,0.04,0.84,0.13,1.21
						c0.08,0.36,0.22,0.68,0.4,0.95c0.18,0.26,0.41,0.47,0.7,0.63s0.63,0.23,1.03,0.23c0.41,0,0.76-0.09,1.05-0.29
						c0.29-0.19,0.58-0.53,0.85-1.03L191.38,69.41z M189.87,66.84c0-0.25-0.02-0.53-0.07-0.82c-0.04-0.29-0.11-0.53-0.21-0.73
						c-0.1-0.21-0.25-0.38-0.43-0.51s-0.42-0.2-0.7-0.2c-0.48,0-0.88,0.2-1.19,0.6c-0.32,0.4-0.49,0.95-0.52,1.66H189.87z"/>
					<path class="st2" d="M199.84,70.99h-3.29v-0.45c0.1-0.01,0.22-0.02,0.34-0.03c0.13-0.01,0.23-0.03,0.31-0.05
						c0.13-0.04,0.22-0.11,0.28-0.21c0.06-0.1,0.09-0.24,0.09-0.4v-3.47c0-0.48-0.11-0.85-0.34-1.11c-0.23-0.26-0.5-0.39-0.83-0.39
						c-0.24,0-0.46,0.04-0.66,0.11c-0.2,0.07-0.38,0.17-0.54,0.28c-0.15,0.1-0.27,0.22-0.36,0.34c-0.09,0.12-0.15,0.22-0.2,0.29
						v3.88c0,0.16,0.03,0.28,0.1,0.38s0.16,0.18,0.29,0.23c0.1,0.05,0.2,0.08,0.31,0.1c0.11,0.02,0.23,0.04,0.34,0.05v0.45h-3.3
						v-0.45c0.1-0.01,0.21-0.02,0.32-0.03c0.11-0.01,0.21-0.03,0.29-0.05c0.13-0.04,0.22-0.11,0.28-0.21
						c0.06-0.1,0.09-0.24,0.09-0.4v-4.16c0-0.16-0.03-0.3-0.1-0.43c-0.07-0.13-0.16-0.24-0.28-0.32c-0.09-0.05-0.19-0.09-0.31-0.12
						c-0.12-0.02-0.25-0.04-0.38-0.05v-0.45l2.24-0.15l0.1,0.1v0.95h0.03c0.11-0.11,0.25-0.24,0.41-0.39
						c0.16-0.15,0.32-0.28,0.46-0.37c0.17-0.11,0.37-0.2,0.6-0.27s0.49-0.11,0.79-0.11c0.65,0,1.13,0.2,1.44,0.6
						c0.31,0.4,0.47,0.94,0.47,1.61v3.51c0,0.16,0.03,0.29,0.08,0.39c0.05,0.1,0.15,0.17,0.28,0.23c0.11,0.05,0.2,0.08,0.28,0.1
						c0.08,0.02,0.19,0.03,0.33,0.04V70.99z"/>
					<path class="st2" d="M205.01,70.7c-0.3,0.12-0.58,0.23-0.84,0.31c-0.26,0.08-0.59,0.13-0.97,0.13c-0.57,0-0.96-0.14-1.19-0.43
						c-0.23-0.29-0.34-0.69-0.34-1.21v-4.57h-1.22v-0.66h1.24v-2.1h1.24v2.1h1.93v0.66h-1.92v3.77c0,0.28,0.01,0.52,0.03,0.71
						c0.02,0.19,0.07,0.35,0.15,0.5c0.07,0.13,0.18,0.23,0.33,0.3s0.34,0.1,0.59,0.1c0.11,0,0.28-0.01,0.5-0.03
						c0.22-0.02,0.38-0.05,0.47-0.08V70.7z"/>
				</g>
			</g>
		</g>
	</g>
</g>
</svg>
